<svg xmlns="http://www.w3.org/2000/svg" width="800" height="600" viewBox="0 0 800 600" role="img" aria-label="Marvel menu item image placeholder">
  <defs>
    <linearGradient id="bg" x1="0" x2="1" y1="0" y2="1">
      <stop offset="0" stop-color="#fffdf8"/>
      <stop offset="1" stop-color="#f0e5d1"/>
    </linearGradient>
    <linearGradient id="frame" x1="0" x2="1" y1="0" y2="1">
      <stop offset="0" stop-color="#0d1b30"/>
      <stop offset="1" stop-color="#182c4a"/>
    </linearGradient>
    <linearGradient id="gold" x1="0" x2="1" y1="0" y2="0">
      <stop offset="0" stop-color="#d4bb7e"/>
      <stop offset="1" stop-color="#bc9e56"/>
    </linearGradient>
  </defs>

  <rect width="800" height="600" fill="url(#bg)"/>
  <rect x="56" y="56" width="688" height="488" rx="34" fill="#ffffff" opacity="0.88"/>
  <rect x="56" y="56" width="688" height="10" rx="5" fill="url(#gold)"/>

  <g opacity="0.16" fill="#0d1b30">
    <circle cx="120" cy="132" r="10"/>
    <circle cx="176" cy="110" r="7"/>
    <circle cx="698" cy="118" r="8"/>
    <circle cx="654" cy="168" r="10"/>
    <circle cx="690" cy="200" r="5"/>
  </g>

  <g transform="translate(248 130)">
    <rect width="304" height="304" rx="28" fill="url(#frame)"/>
    <rect x="18" y="18" width="268" height="268" rx="22" fill="#13233d" stroke="#ffffff" stroke-opacity="0.18" stroke-width="2"/>
    <path d="M73 86c22-18 43-19 61 2 17-21 39-20 61-2" fill="none" stroke="url(#gold)" stroke-width="7" stroke-linecap="round"/>
    <path d="M84 218c18 16 36 17 50 0 13 16 32 16 47 0 14 17 31 16 49 0" fill="none" stroke="url(#gold)" stroke-width="7" stroke-linecap="round"/>
    <text x="152" y="156" text-anchor="middle" font-family="Georgia, serif" font-size="64" font-weight="700" fill="url(#gold)" letter-spacing="2">MARVEL</text>
    <text x="152" y="188" text-anchor="middle" font-family="Arial, sans-serif" font-size="21" font-weight="700" fill="#efe4ca" letter-spacing="4">PATISSERIE</text>
  </g>

  <text x="400" y="490" text-anchor="middle" font-family="Arial, sans-serif" font-size="26" font-weight="700" fill="#5b6575" letter-spacing="3">
    IMAGE COMING SOON
  </text>
</svg>
