<svg xmlns="http://www.w3.org/2000/svg" width="800" height="600" viewBox="0 0 800 600" role="img" aria-label="Menu item image placeholder">
  <defs>
    <linearGradient id="bg" x1="0" x2="1" y1="0" y2="1">
      <stop offset="0" stop-color="#fdfaf6"/>
      <stop offset="1" stop-color="#efe6d8"/>
    </linearGradient>
    <linearGradient id="accent" x1="0" x2="1" y1="0" y2="0">
      <stop offset="0" stop-color="#745f27" stop-opacity="0.85"/>
      <stop offset="1" stop-color="#3a2801" stop-opacity="0.85"/>
    </linearGradient>
  </defs>

  <rect width="800" height="600" fill="url(#bg)"/>
  <rect x="40" y="40" width="720" height="520" rx="28" fill="#ffffff" opacity="0.85"/>
  <rect x="40" y="40" width="720" height="8" rx="4" fill="url(#accent)"/>

  <g opacity="0.35" fill="#3a2801">
    <circle cx="120" cy="140" r="10"/>
    <circle cx="170" cy="120" r="6"/>
    <circle cx="210" cy="160" r="8"/>
    <circle cx="650" cy="150" r="9"/>
    <circle cx="700" cy="120" r="6"/>
    <circle cx="670" cy="190" r="7"/>
  </g>

  <g fill="none" stroke="#3a2801" stroke-opacity="0.35" stroke-width="10" stroke-linecap="round" stroke-linejoin="round">
    <path d="M320 290c0 62 36 102 80 102s80-40 80-102" />
    <path d="M315 290h170" />
    <path d="M505 305c32 0 52 16 52 44s-20 44-52 44" />
    <path d="M348 408h104" />
  </g>

  <text x="400" y="470" text-anchor="middle" font-family="DM Sans, system-ui, -apple-system, Segoe UI, Roboto, sans-serif" font-size="28" fill="#3a2801" opacity="0.9">
    Image coming soon
  </text>
  <text x="400" y="510" text-anchor="middle" font-family="Forum, Georgia, serif" font-size="42" fill="#745f27" opacity="0.95" letter-spacing="2">
    LARA
  </text>
</svg>
